<?xml version="1.0" encoding="UTF-8" standalone="no"?>
<!-- Created with Inkscape (http://www.inkscape.org/) -->

<svg
   xmlns:dc="http://purl.org/dc/elements/1.1/"
   xmlns:cc="http://creativecommons.org/ns#"
   xmlns:rdf="http://www.w3.org/1999/02/22-rdf-syntax-ns#"
   xmlns:svg="http://www.w3.org/2000/svg"
   xmlns="http://www.w3.org/2000/svg"
   xmlns:sodipodi="http://sodipodi.sourceforge.net/DTD/sodipodi-0.dtd"
   xmlns:inkscape="http://www.inkscape.org/namespaces/inkscape"
   width="600"
   height="120"
   id="svg2"
   version="1.1"
   inkscape:version="0.48.3.1 r9886"
   sodipodi:docname="FiksGataMi.svg"
   inkscape:export-filename="/home/hildenae/Bilder/FiksGataMi.png"
   inkscape:export-xdpi="45"
   inkscape:export-ydpi="45">
  <defs
     id="defs4">
    <clipPath
       id="clipPath19">
      <path
         id="path21"
         d="M 0.488281,0.484375 L 5953.24,0.484375 L 5953.24,5212.5 L 0.488281,5212.5 L 0.488281,0.484375 z" />
    </clipPath>
  </defs>
  <sodipodi:namedview
     id="base"
     pagecolor="#323232"
     bordercolor="#2366f8"
     borderopacity="1"
     inkscape:pageopacity="0.39607843"
     inkscape:pageshadow="2"
     inkscape:zoom="1.979899"
     inkscape:cx="276.46491"
     inkscape:cy="82.909197"
     inkscape:document-units="px"
     inkscape:current-layer="layer1"
     showgrid="false"
     inkscape:window-width="1920"
     inkscape:window-height="1031"
     inkscape:window-x="0"
     inkscape:window-y="25"
     inkscape:window-maximized="1"
     borderlayer="false" />
  <metadata
     id="metadata7">
    <rdf:RDF>
      <cc:Work
         rdf:about="">
        <dc:format>image/svg+xml</dc:format>
        <dc:type
           rdf:resource="http://purl.org/dc/dcmitype/StillImage" />
        <dc:title />
        <cc:license
           rdf:resource="http://creativecommons.org/licenses/publicdomain/" />
      </cc:Work>
      <cc:License
         rdf:about="http://creativecommons.org/licenses/publicdomain/">
        <cc:permits
           rdf:resource="http://creativecommons.org/ns#Reproduction" />
        <cc:permits
           rdf:resource="http://creativecommons.org/ns#Distribution" />
        <cc:permits
           rdf:resource="http://creativecommons.org/ns#DerivativeWorks" />
      </cc:License>
    </rdf:RDF>
  </metadata>
  <g
     inkscape:label="Layer 1"
     inkscape:groupmode="layer"
     id="layer1"
     transform="translate(0,-932.36215)"
     style="display:inline">
    <flowRoot
       xml:space="preserve"
       id="flowRoot2989"
       style="font-size:40px;font-style:normal;font-variant:normal;font-weight:bold;font-stretch:normal;line-height:125%;letter-spacing:0px;word-spacing:0px;fill:#ffd000;fill-opacity:1;stroke:none;font-family:Nimbus Roman No9 L;-inkscape-font-specification:Nimbus Roman No9 L Bold"
       transform="matrix(1.1471645,0,0,1.1471645,-17.211813,909.54953)"><flowRegion
         id="flowRegion2991"><rect
           id="rect2993"
           width="443.45697"
           height="82.832512"
           x="140.41121"
           y="19.994898"
           style="font-style:normal;font-variant:normal;font-weight:bold;font-stretch:normal;fill:#ffd000;fill-opacity:1;font-family:Nimbus Roman No9 L;-inkscape-font-specification:Nimbus Roman No9 L Bold" /></flowRegion><flowPara
         id="flowPara2995"
         style="font-size:72px;font-style:normal;font-variant:normal;font-weight:bold;font-stretch:normal;fill:#ffd000;fill-opacity:1;font-family:Sorts Mill Goudy;-inkscape-font-specification:Sorts Mill Goudy Bold"><flowSpan
           style="font-style:normal;font-weight:normal;-inkscape-font-specification:Sorts Mill Goudy"
           id="flowSpan3073">FiksGata</flowSpan><flowSpan
           style="font-style:italic;font-variant:normal;font-weight:normal;font-stretch:normal;fill:#ffffff;fill-opacity:1;font-family:Sorts Mill Goudy;-inkscape-font-specification:Sorts Mill Goudy Italic"
           id="flowSpan3011">Mi</flowSpan></flowPara></flowRoot>    <g
       id="g15"
       transform="matrix(0.0192865,0,0,-0.0192865,18.408194,1042.0758)"
       style="stroke:none">
      <path
         style="fill:#ffffff;fill-opacity:1;fill-rule:nonzero;stroke:none"
         d="m 335.858,4367.2553 c -96.87997,3.852 -187.45912,-37.5233 -247.297529,-113.8354 L -543.4221,3444.7962 c -49.05781,-63.1088 -61.61204,-147.5295 -27.47751,-219.82 34.15878,-72.339 108.47113,-119.4089 188.41716,-121.6861 79.94603,-2.1804 154.18654,39.606 192.34253,109.91 L 53.232243,3036.5589 -52.752399,2899.1715 c -59.014641,-79.1708 -94.208591,-176.0539 -94.208591,-274.7751 l 0,-1432.7555 -580.95293,-997.04085 c -57.10083,-91.26428 -60.9542,-204.68611 -7.85071,-298.32705 53.07925,-93.64829 155.36264,-151.2932 262.99896,-149.16365 107.61208,2.12955 205.79978,61.36989 255.14825,157.014269 l 706.56437,1236.487581 7.8507,847.8774 541.69935,-832.1759 0,-1110.876172 c -2.9556,-106.812739 49.2781,-208.708498 141.3129,-262.999018 92.0347,-54.27344 206.3166,-54.27344 298.3272,0 92.0347,54.29052 148.1939,156.186279 145.2382,262.999018 l 0,1252.189072 c 2.1076,60.7831 -14.0356,121.7441 -47.1042,172.7157 l -565.2516,867.5041 502.4457,-365.0583 c -21.2462,-87.7225 9.4395,-178.5168 82.4326,-231.5961 73.0173,-53.0793 170.404,-55.0915 247.2975,-7.8507 L 2781.3559,1050.328 2647.8937,857.98556 c -26.4064,-37.11433 -21.1222,-87.06561 15.7014,-113.83536 l 459.2669,-333.65548 -176.6411,-243.37208 -325.8047,0 -306.178,-427.86404 3846.8505,0 -883.2055,1530.8895 -514.2218,368.9836 -435.7147,0 -412.1625,-239.4469 0,-259.0736 -105.9846,-141.31273 -612.3559,443.56543 c -17.7334,19.3807 -40.4942,28.9068 -66.731,27.4774 -26.2611,-1.3808 -51.1296,-14.1304 -66.7311,-35.3282 l -137.3875,-184.4918 -977.4141,706.5644 0,1821.3659 c -8.6244,308.5914 -246.0468,560.8711 -553.4754,588.8037 l -1059.8466,0 z m -19.62679,-506.3711 380.75969,0 -494.59506,-631.9827 -239.446812,176.6411 353.282182,455.3416 z m 1197.23399,-718.3405 0,-863.5787 -435.7146,314.0285 435.7146,549.5502 z"
         id="path31"
         inkscape:connector-curvature="0" />
      <path
         inkscape:connector-curvature="0"
         d="m 6160.3104,-259.90355 -3844.7954,0 306.6291,427.03262 325.9615,0 174.5002,243.70681 -457.194,333.20502 c -36.8236,26.76989 -45.1816,78.22595 -18.7752,115.34028 l 135.5689,190.39262 -937.4512,682.1813 c -76.8935,-47.2407 -174.6941,-43.4373 -247.7114,9.642 -72.9931,53.0792 -106.7157,144.9686 -85.4695,232.6912 L 1012.541,2336.2982 1575.0457,1469.49 c 33.0686,-50.9716 49.7118,-110.8826 47.6042,-171.6657 l 1.4293,-1253.300888 c 2.9555,-106.812607 -52.3282,-206.764432 -144.363,-261.055082 -92.0106,-54.27357 -206.2607,-54.27357 -298.2954,0 -92.0348,54.29065 -147.2944,154.242475 -144.3388,261.055082 l 0,1111.965988 -540.84664,833.6427 -7.21937,-848.0572 -708.17592,-1236.029941 c -49.34847,-95.644509 -147.14904,-156.597319 -254.76116,-158.726739 -107.63635,-2.12942 -207.76262,54.8768 -260.84189,148.52509 -53.10351,93.640936 -50.60823,208.85523 6.49258,300.11952 l 582.68498,995.14567 0,1433.6493 c 0,98.7212 31.85726,194.85 90.87193,274.0209 l 106.71574,137.0467 -242.98728,176.6806 c -38.15604,-70.304 -112.55424,-113.1357 -192.50021,-110.9553 -79.94598,2.2772 -151.80044,49.2515 -185.95917,121.5905 -34.13451,72.2906 -24.71057,157.6873 24.34718,220.7962 L 88.050618,4251.634 c 59.838352,76.3121 152.648362,119.2164 249.528342,115.3644 l 1058.41194,0 c 307.4286,-27.9326 545.4012,-281.3128 554.0255,-589.9043 l 0,-1818.6739 976.4311,-709.6052 136.9984,186.056 c 15.6015,21.1978 39.8518,34.2314 66.1128,35.6123 26.2368,1.4294 51.7469,-9.0363 69.4803,-28.4171 l 611.514,-444.18463 106.7642,144.19333 0,258.1529 412.4485,240.8554 435.5845,0 511.7025,-371.1189 883.2577,-1529.86785 z"
         id="path33"
         style="fill:#ffffff;stroke:none" />
      <path
         inkscape:connector-curvature="0"
         d="m 2512.9572,4901.619 c 0,309.5847 -250.9819,560.5665 -560.5666,560.5665 -309.5846,0 -560.5909,-250.9818 -560.5909,-560.5665 0,-309.6089 251.0063,-560.5667 560.5909,-560.5667 309.5847,0 560.5666,250.9578 560.5666,560.5667"
         id="path35"
         style="fill:#ffffff;fill-opacity:1;fill-rule:nonzero;stroke:none" />
      <path
         inkscape:connector-curvature="0"
         d="m 2512.9572,4901.619 c 0,309.5847 -250.9819,560.5665 -560.5666,560.5665 -309.5846,0 -560.5909,-250.9818 -560.5909,-560.5665 0,-309.6089 251.0063,-560.5667 560.5909,-560.5667 309.5847,0 560.5666,250.9578 560.5666,560.5667 z"
         id="path37"
         style="fill:#ffffff;stroke:none" />
    </g>
    <rect
       style="fill:#ffffff;fill-opacity:1;stroke:none"
       id="rect4037"
       width="472.24631"
       height="36.365501"
       x="105.05586"
       y="78.078667"
       transform="translate(0,932.36215)" />
    <rect
       style="fill:#ffff00;fill-opacity:1;stroke:#000000;stroke-opacity:1"
       id="rect4041"
       width="56.063465"
       height="8.0812206"
       x="117.1777"
       y="92.220802"
       transform="translate(0,932.36215)" />
    <rect
       style="fill:#ffff00;fill-opacity:1;stroke:#000000;stroke-opacity:1"
       id="rect4043"
       width="57.578693"
       height="8.586297"
       x="215.66757"
       y="93.230957"
       transform="translate(0,932.36215)" />
    <rect
       style="fill:#ffff00;fill-opacity:1;stroke:#000000;stroke-opacity:1"
       id="rect4045"
       width="57.578693"
       height="9.5964489"
       x="304.05591"
       y="92.725883"
       transform="translate(0,932.36215)" />
    <rect
       style="fill:#ffff00;fill-opacity:1;stroke:#000000;stroke-opacity:1"
       id="rect4047"
       width="55.558392"
       height="10.101525"
       x="389.41382"
       y="93.736031"
       transform="translate(0,932.36215)" />
    <rect
       style="fill:#ffff00;fill-opacity:1;stroke:#000000;stroke-opacity:1"
       id="rect4049"
       width="75.761444"
       height="10.606602"
       x="474.26663"
       y="93.736031"
       transform="translate(0,932.36215)" />
  </g>
</svg>
